<svg width="59" height="47" viewBox="0 0 59 47" fill="none" xmlns="http://www.w3.org/2000/svg">
<path d="M56.9091 11.1838L46.0136 17.2192C39.9392 20.584 36.902 22.2666 33.6855 22.9262C30.8387 23.5098 27.9024 23.5098 25.0556 22.9262C21.8392 22.2666 18.8019 20.584 12.7275 17.2192L1.83197 11.1838M11.6235 44.7439H47.1176C50.545 44.7439 52.2588 44.7439 53.5678 44.0788C54.7192 43.494 55.6555 42.5604 56.2421 41.4123C56.9091 40.1071 56.9091 38.3983 56.9091 34.981V11.794C56.9091 8.37665 56.9091 6.66795 56.2421 5.3627C55.6555 4.21455 54.7192 3.28109 53.5678 2.69611C52.2588 2.03104 50.545 2.03104 47.1176 2.03104H11.6235C8.19613 2.03104 6.48244 2.03104 5.17338 2.69611C4.02187 3.28109 3.08568 4.21455 2.49898 5.3627C1.83197 6.66795 1.83197 8.37662 1.83197 11.794V34.981C1.83197 38.3983 1.83197 40.1071 2.49898 41.4123C3.08568 42.5604 4.02187 43.494 5.17338 44.0788C6.48244 44.7439 8.1961 44.7439 11.6235 44.7439Z" fill="white"/>
<path d="M56.9091 11.1838L46.0136 17.2192C39.9392 20.584 36.902 22.2666 33.6855 22.9262C30.8387 23.5098 27.9024 23.5098 25.0556 22.9262C21.8392 22.2666 18.8019 20.584 12.7275 17.2192L1.83197 11.1838M11.6235 44.7439H47.1176C50.545 44.7439 52.2588 44.7439 53.5678 44.0788C54.7192 43.494 55.6555 42.5604 56.2421 41.4123C56.9091 40.1071 56.9091 38.3983 56.9091 34.981V11.794C56.9091 8.37665 56.9091 6.66795 56.2421 5.3627C55.6555 4.21455 54.7192 3.28109 53.5678 2.69611C52.2588 2.03104 50.545 2.03104 47.1176 2.03104H11.6235C8.19613 2.03104 6.48244 2.03104 5.17338 2.69611C4.02187 3.28109 3.08568 4.21455 2.49898 5.3627C1.83197 6.66795 1.83197 8.37662 1.83197 11.794V34.981C1.83197 38.3983 1.83197 40.1071 2.49898 41.4123C3.08568 42.5604 4.02187 43.494 5.17338 44.0788C6.48244 44.7439 8.1961 44.7439 11.6235 44.7439Z" stroke="#5000D3" stroke-width="3" stroke-linecap="round" stroke-linejoin="round"/>
</svg>
