<svg width="44" height="47" viewBox="0 0 44 47" fill="none" xmlns="http://www.w3.org/2000/svg">
<path d="M42.3604 8.14623C42.3604 28.4595 26.7598 44.9268 7.51563 44.9268C6.64738 44.9268 5.78656 44.8933 4.93424 44.8273C3.95611 44.7516 3.46703 44.7139 3.02185 44.4434C2.65312 44.2194 2.30344 43.8222 2.11863 43.4176C1.89551 42.9292 1.89551 42.3595 1.89551 41.2202V34.535C1.89551 33.5768 1.89551 33.0977 2.04489 32.6872C2.17685 32.3243 2.39118 32.0014 2.66906 31.7465C2.98363 31.458 3.41015 31.2942 4.26317 30.9668L11.4723 28.1997C12.4648 27.8188 12.961 27.6283 13.4318 27.6606C13.847 27.689 14.2465 27.8388 14.5859 28.0927C14.9708 28.3805 15.2425 28.8584 15.7858 29.8145L17.6318 33.0621C23.5889 30.2143 28.4182 25.1101 31.1201 18.8245L28.0434 16.8758C27.1377 16.3023 26.6849 16.0156 26.4123 15.6093C26.1717 15.251 26.0299 14.8293 26.0029 14.3911C25.9723 13.8941 26.1528 13.3703 26.5136 12.3227L29.1351 4.71308C29.4453 3.81267 29.6004 3.36246 29.8738 3.03041C30.1152 2.73709 30.4212 2.51086 30.7649 2.37156C31.1538 2.21388 31.6077 2.21388 32.5155 2.21388H38.8489C39.9282 2.21388 40.4679 2.21388 40.9306 2.4494C41.3139 2.64448 41.6902 3.01359 41.9024 3.4028C42.1587 3.87273 42.1944 4.38896 42.2662 5.42145C42.3287 6.32111 42.3604 7.22975 42.3604 8.14623Z" stroke="#5000D3" stroke-width="3" stroke-linecap="round" stroke-linejoin="round"/>
</svg>
